<?xml version="1.0" encoding="utf-8"?>
<!-- Generator: Adobe Illustrator 23.0.0, SVG Export Plug-In . SVG Version: 6.00 Build 0)  -->
<svg version="1.1" id="Capa_1" xmlns="http://www.w3.org/2000/svg" xmlns:xlink="http://www.w3.org/1999/xlink" x="0px" y="0px"
	 viewBox="0 0 490.7 319.7" style="enable-background:new 0 0 490.7 319.7;" xml:space="preserve">
<style type="text/css">
	.st0{fill:#FFC107;}
	.st1{fill:#FFFFFF;}
</style>
<path class="st0" d="M472.3,36.5L245.2,263.7L18.1,36.5c-4.2-4.1-11-4-15.1,0.3c-4,4.1-4,10.7,0,14.8l234.7,234.7
	c4.2,4.2,10.9,4.2,15.1,0L487.4,51.6c4.2-4.1,4.4-10.8,0.3-15.1c-4.1-4.2-10.8-4.4-15.1-0.3C472.5,36.4,472.4,36.4,472.3,36.5
	L472.3,36.5z"/>
<path class="st1" d="M245.2,289.4c-2.8,0-5.5-1.1-7.6-3.1L3,51.6c-4.1-4.2-4-11,0.3-15.1c4.1-4,10.7-4,14.8,0l227.1,227.1
	L472.3,36.5c4.1-4.2,10.8-4.4,15.1-0.3c4.2,4.1,4.4,10.8,0.3,15.1c-0.1,0.1-0.2,0.2-0.3,0.3L252.7,286.3
	C250.7,288.3,248,289.4,245.2,289.4z"/>
</svg>
