<svg id="swan" xmlns="http://www.w3.org/2000/svg" xmlns:xlink="http://www.w3.org/1999/xlink" viewBox="0 0 600 600"><defs><style>.cls-1{fill:url(#linear-gradient);}.cls-2{fill:url(#linear-gradient-2);}.cls-3{fill:url(#linear-gradient-3);}.cls-4{fill:#fff;}</style><linearGradient id="linear-gradient" x1="-38.89" y1="185.53" x2="739.92" y2="541.48" gradientUnits="userSpaceOnUse"><stop offset="0" stop-color="#edae69"/><stop offset="0.22" stop-color="#f0a650"/><stop offset="0.53" stop-color="#f49c34"/><stop offset="0.8" stop-color="#f69623"/><stop offset="1" stop-color="#f7941d"/></linearGradient><linearGradient id="linear-gradient-2" x1="19.2" y1="255.67" x2="511.9" y2="523.36" gradientUnits="userSpaceOnUse"><stop offset="0" stop-color="#f2bb79"/><stop offset="0.44" stop-color="#f4ab53"/><stop offset="1" stop-color="#f7941d"/></linearGradient><linearGradient id="linear-gradient-3" x1="124.44" y1="232.72" x2="550.22" y2="537.26" gradientUnits="userSpaceOnUse"><stop offset="0.09" stop-color="#f3b45f"/><stop offset="0.46" stop-color="#f3b35d"/><stop offset="0.64" stop-color="#f4af55"/><stop offset="0.78" stop-color="#f4a948"/><stop offset="0.89" stop-color="#f5a036"/><stop offset="0.99" stop-color="#f7951e"/><stop offset="1" stop-color="#f7941d"/></linearGradient></defs><title>logo-white-01</title><path id="top_wing" data-name="top wing" class="cls-1" d="M380.43,292.8s-3-76.33-112.34-122.64C157.46,130.29,88,193.75,76.42,207.47c0,0-65.6,56.17-63.89,157.36,0,0,39.88-164.22,171.09-180.52C282.66,176.6,347.41,245.2,380.43,292.8Z"/><path id="mid_wing" data-name="mid wing" class="cls-2" d="M457.18,415.41s-42.44-32.16-63-57.89-61.1-62.39-98.4-85.54-73.32-34.09-119-28.3S48.13,296.42,38.48,400.61c0,0,38.81-131.42,154.15-127.56,48.45,4.29,60.88,5.15,112.34,44.59C361.57,359.24,387.29,400.83,457.18,415.41Z"/><path id="body" class="cls-3" d="M482.27,340.8s79.11,41.8,54,131.2S416.66,518.31,409,512.52s-43.74-26.69-107.41-82.64-129-97.12-187.81-56.28c0,0,23.16-34.09,71.07-35.05s105.48,40.52,138.61,65.6,101.62,90,140.53,83.93,62.06-37.3,55-74.6S482.27,340.8,482.27,340.8Z"/><path id="head2" class="cls-4" d="M592.25,195.76S558,188.15,555,169.07c2.89-19.53-11.22-58.25-49-79-24.35-13.35-53.12-15.43-79.81-7.75-51.79,14.92-68.39,54.94-70.27,87-1.79,30.3,24.58,66.84,74.15,109.26a633.25,633.25,0,0,0,58.9,44.48c58.07,39,76.7,68.18,71.15,124.86,0,0,42.45-86.18-28.3-143.64C458.9,240,380.43,197.59,389.44,153.42s54.45-72,87.9-28.73c15.43,34.31,26.15,50.6,57.88,50.17C546.37,186.87,577.24,212.16,592.25,195.76Z"/></svg>